<svg width="61" height="24" viewBox="0 0 61 24" fill="none" xmlns="http://www.w3.org/2000/svg">
<rect width="4" height="4" fill="#FFFFFF"/>
<rect y="5" width="4" height="4" fill="#FFFFFF"/>
<rect y="10" width="4" height="4" fill="#FFFFFF"/>
<rect y="15" width="4" height="4" fill="#FFFFFF"/>
<rect y="20" width="4" height="4" fill="#FFFFFF"/>
<rect x="20" width="4" height="4" fill="#FFFFFF"/>
<rect x="20" y="5" width="4" height="4" fill="#FFFFFF"/>
<rect x="20" y="10" width="4" height="4" fill="#FFFFFF"/>
<rect x="20" y="15" width="4" height="4" fill="#FFFFFF"/>
<rect x="20" y="20" width="4" height="4" fill="#FFFFFF"/>
<rect x="26" width="4" height="4" fill="#FFFFFF"/>
<rect x="31" width="4" height="4" fill="#FFFFFF"/>
<rect x="36" width="4" height="4" fill="#FFFFFF"/>
<rect x="26" y="10" width="4" height="4" fill="#FFFFFF"/>
<rect x="31" y="10" width="4" height="4" fill="#FFFFFF"/>
<rect x="36" y="10" width="4" height="4" fill="#FFFFFF"/>
<rect x="26" y="5" width="4" height="4" fill="#FFFFFF"/>
<rect x="26" y="15" width="4" height="4" fill="#FFFFFF"/>
<rect x="26" y="20" width="4" height="4" fill="#FFFFFF"/>
<rect x="26" width="4" height="4" fill="#FFFFFF"/>
<rect x="26" y="20" width="4" height="4" fill="#FFFFFF"/>
<rect x="42" width="4" height="4" fill="#FFFFFF"/>
<rect x="42" y="10" width="4" height="4" fill="#FFFFFF"/>
<rect x="42" y="5" width="4" height="4" fill="#FFFFFF"/>
<rect x="42" y="15" width="4" height="4" fill="#FFFFFF"/>
<rect x="42" y="20" width="4" height="4" fill="#FFFFFF"/>
<rect x="42" width="4" height="4" fill="#FFFFFF"/>
<rect x="42" y="20" width="4" height="4" fill="#FFFFFF"/>
<rect x="57" width="4" height="4" fill="#FFFFFF"/>
<rect x="57" y="10" width="4" height="4" fill="#FFFFFF"/>
<rect x="57" y="5" width="4" height="4" fill="#FFFFFF"/>
<rect x="57" y="15" width="4" height="4" fill="#FFFFFF"/>
<rect x="57" y="20" width="4" height="4" fill="#FFFFFF"/>
<rect x="57" width="4" height="4" fill="#FFFFFF"/>
<rect x="57" y="20" width="4" height="4" fill="#FFFFFF"/>
<rect x="47" y="20" width="4" height="4" fill="#FFFFFF"/>
<rect x="52" y="20" width="4" height="4" fill="#FFFFFF"/>
<rect x="47" width="4" height="4" fill="#FFFFFF"/>
<rect x="52" width="4" height="4" fill="#FFFFFF"/>
<rect x="5" y="20" width="4" height="4" fill="#FFFFFF"/>
<rect x="5" y="15" width="4" height="4" fill="#FFFFFF"/>
<rect x="15" y="20" width="4" height="4" fill="#FFFFFF"/>
<rect x="15" y="15" width="4" height="4" fill="#FFFFFF"/>
<rect x="10" y="15" width="4" height="4" fill="#FFFFFF"/>
<rect x="10" y="10" width="4" height="4" fill="#FFFFFF"/>
</svg>
